HIERARCHY
ROOT mixamorig:Hips
{
	OFFSET 0.000000 104.274902 0.000000
	CHANNELS 6 Xposition Yposition Zposition Xrotation Yrotation Zrotation
	JOINT mixamorig:Spine
	{
		OFFSET 0.000000 10.181549 0.131524
		CHANNELS 6 Xposition Yposition Zposition Xrotation Yrotation Zrotation
		JOINT mixamorig:Spine1
		{
			OFFSET 0.000000 9.893990 -1.470706
			CHANNELS 3 Xrotation Yrotation Zrotation
			JOINT mixamorig:Spine2
			{
				OFFSET 0.000000 9.220787 -1.370637
				CHANNELS 3 Xrotation Yrotation Zrotation
				JOINT mixamorig:Neck
				{
					OFFSET 0.000000 16.740372 -2.049022
					CHANNELS 6 Xposition Yposition Zposition Xrotation Yrotation Zrotation
					JOINT mixamorig:Head
					{
						OFFSET 0.000000 9.617859 1.684976
						CHANNELS 6 Xposition Yposition Zposition Xrotation Yrotation Zrotation
						JOINT mixamorig:HeadTop_End
						{
							OFFSET 0.000000 22.037384 7.501072
							CHANNELS 6 Xposition Yposition Zposition Xrotation Yrotation Zrotation
							End Site
							{
								OFFSET 0.000000 23.106567 -2.828246
							}
						}
					}
				}
				JOINT mixamorig:RightShoulder
				{
					OFFSET -4.570000 11.014877 -2.160840
					CHANNELS 6 Xposition Yposition Zposition Xrotation Yrotation Zrotation
					JOINT mixamorig:RightArm
					{
						OFFSET -10.592867 -0.524796 -2.232105
						CHANNELS 3 Xrotation Yrotation Zrotation
						JOINT mixamorig:RightForeArm
						{
							OFFSET -27.841497 0.000000 -0.000002
							CHANNELS 3 Xrotation Yrotation Zrotation
							JOINT mixamorig:RightHand
							{
								OFFSET -28.328812 0.000000 -0.000001
								CHANNELS 3 Xrotation Yrotation Zrotation
								JOINT mixamorig:RightHandThumb1
								{
									OFFSET -2.464798 -1.573990 2.681911
									CHANNELS 6 Xposition Yposition Zposition Xrotation Yrotation Zrotation
									JOINT mixamorig:RightHandThumb2
									{
										OFFSET -3.244781 -1.873383 1.873376
										CHANNELS 3 Xrotation Yrotation Zrotation
										JOINT mixamorig:RightHandThumb3
										{
											OFFSET -2.646263 -1.527817 1.527818
											CHANNELS 6 Xposition Yposition Zposition Xrotation Yrotation Zrotation
											JOINT mixamorig:RightHandThumb4
											{
												OFFSET -1.994591 -1.151581 1.151575
												CHANNELS 6 Xposition Yposition Zposition Xrotation Yrotation Zrotation
												End Site
												{
													OFFSET -1.860176 -1.142715 1.365483
												}
											}
										}
									}
								}
								JOINT mixamorig:RightHandIndex1
								{
									OFFSET -9.108299 -0.517883 2.259803
									CHANNELS 6 Xposition Yposition Zposition Xrotation Yrotation Zrotation
									JOINT mixamorig:RightHandIndex2
									{
										OFFSET -3.699997 0.000000 0.000000
										CHANNELS 3 Xrotation Yrotation Zrotation
										JOINT mixamorig:RightHandIndex3
										{
											OFFSET -2.850006 0.000000 0.000000
											CHANNELS 3 Xrotation Yrotation Zrotation
											JOINT mixamorig:RightHandIndex4
											{
												OFFSET -2.772194 0.000000 0.000000
												CHANNELS 3 Xrotation Yrotation Zrotation
												End Site
												{
													OFFSET -2.772202 0.000000 -0.000484
												}
											}
										}
									}
								}
								JOINT mixamorig:RightHandMiddle1
								{
									OFFSET -9.532501 0.000000 -0.000000
									CHANNELS 6 Xposition Yposition Zposition Xrotation Yrotation Zrotation
									JOINT mixamorig:RightHandMiddle2
									{
										OFFSET -3.699997 0.000000 0.000000
										CHANNELS 3 Xrotation Yrotation Zrotation
										JOINT mixamorig:RightHandMiddle3
										{
											OFFSET -2.949997 0.000000 0.000000
											CHANNELS 3 Xrotation Yrotation Zrotation
											JOINT mixamorig:RightHandMiddle4
											{
												OFFSET -2.946594 0.000000 0.000000
												CHANNELS 3 Xrotation Yrotation Zrotation
												End Site
												{
													OFFSET -2.946602 0.000000 -0.000982
												}
											}
										}
									}
								}
								JOINT mixamorig:RightHandRing1
								{
									OFFSET -9.103600 -0.043106 -1.865100
									CHANNELS 6 Xposition Yposition Zposition Xrotation Yrotation Zrotation
									JOINT mixamorig:RightHandRing2
									{
										OFFSET -3.379303 0.000000 0.000000
										CHANNELS 3 Xrotation Yrotation Zrotation
										JOINT mixamorig:RightHandRing3
										{
											OFFSET -2.889694 0.000000 0.000000
											CHANNELS 3 Xrotation Yrotation Zrotation
											JOINT mixamorig:RightHandRing4
											{
												OFFSET -2.638802 0.000000 0.000000
												CHANNELS 3 Xrotation Yrotation Zrotation
												End Site
												{
													OFFSET -2.638802 0.000000 0.004218
												}
											}
										}
									}
								}
								JOINT mixamorig:RightHandPinky1
								{
									OFFSET -8.076698 -0.486725 -3.806299
									CHANNELS 6 Xposition Yposition Zposition Xrotation Yrotation Zrotation
									JOINT mixamorig:RightHandPinky2
									{
										OFFSET -3.600006 0.000000 0.000000
										CHANNELS 3 Xrotation Yrotation Zrotation
										JOINT mixamorig:RightHandPinky3
										{
											OFFSET -2.099998 0.000000 0.000000
											CHANNELS 3 Xrotation Yrotation Zrotation
											JOINT mixamorig:RightHandPinky4
											{
												OFFSET -2.115791 0.000000 0.000000
												CHANNELS 3 Xrotation Yrotation Zrotation
												End Site
												{
													OFFSET -2.115799 0.000000 0.000174
												}
											}
										}
									}
								}
							}
						}
					}
				}
				JOINT mixamorig:LeftShoulder
				{
					OFFSET 4.570400 11.014679 -2.160816
					CHANNELS 6 Xposition Yposition Zposition Xrotation Yrotation Zrotation
					JOINT mixamorig:LeftArm
					{
						OFFSET 10.592373 -0.524597 -2.232116
						CHANNELS 3 Xrotation Yrotation Zrotation
						JOINT mixamorig:LeftForeArm
						{
							OFFSET 27.841488 0.000000 0.000001
							CHANNELS 3 Xrotation Yrotation Zrotation
							JOINT mixamorig:LeftHand
							{
								OFFSET 28.328808 0.000000 -0.000000
								CHANNELS 3 Xrotation Yrotation Zrotation
								JOINT mixamorig:LeftHandThumb1
								{
									OFFSET 2.466103 -1.576202 2.681698
									CHANNELS 6 Xposition Yposition Zposition Xrotation Yrotation Zrotation
									JOINT mixamorig:LeftHandThumb2
									{
										OFFSET 3.243317 -1.872528 1.872530
										CHANNELS 3 Xrotation Yrotation Zrotation
										JOINT mixamorig:LeftHandThumb3
										{
											OFFSET 2.647881 -1.528763 1.528754
											CHANNELS 6 Xposition Yposition Zposition Xrotation Yrotation Zrotation
											JOINT mixamorig:LeftHandThumb4
											{
												OFFSET 1.998924 -1.154083 1.154080
												CHANNELS 6 Xposition Yposition Zposition Xrotation Yrotation Zrotation
												End Site
												{
													OFFSET 1.884041 -1.149155 1.337651
												}
											}
										}
									}
								}
								JOINT mixamorig:LeftHandIndex1
								{
									OFFSET 9.109299 -0.518005 2.259900
									CHANNELS 6 Xposition Yposition Zposition Xrotation Yrotation Zrotation
									JOINT mixamorig:LeftHandIndex2
									{
										OFFSET 3.699997 0.000000 0.000000
										CHANNELS 3 Xrotation Yrotation Zrotation
										JOINT mixamorig:LeftHandIndex3
										{
											OFFSET 2.850006 0.000000 0.000000
											CHANNELS 3 Xrotation Yrotation Zrotation
											JOINT mixamorig:LeftHandIndex4
											{
												OFFSET 2.774895 0.000000 0.000000
												CHANNELS 3 Xrotation Yrotation Zrotation
												End Site
												{
													OFFSET 2.774902 0.000000 -0.000072
												}
											}
										}
									}
								}
								JOINT mixamorig:LeftHandMiddle1
								{
									OFFSET 9.533401 0.000000 0.000000
									CHANNELS 6 Xposition Yposition Zposition Xrotation Yrotation Zrotation
									JOINT mixamorig:LeftHandMiddle2
									{
										OFFSET 3.699997 0.000000 0.000000
										CHANNELS 3 Xrotation Yrotation Zrotation
										JOINT mixamorig:LeftHandMiddle3
										{
											OFFSET 2.949997 0.000000 0.000000
											CHANNELS 3 Xrotation Yrotation Zrotation
											JOINT mixamorig:LeftHandMiddle4
											{
												OFFSET 2.952896 0.000000 0.000000
												CHANNELS 3 Xrotation Yrotation Zrotation
												End Site
												{
													OFFSET 2.952904 0.000000 0.000165
												}
											}
										}
									}
								}
								JOINT mixamorig:LeftHandRing1
								{
									OFFSET 9.104500 -0.042999 -1.865101
									CHANNELS 6 Xposition Yposition Zposition Xrotation Yrotation Zrotation
									JOINT mixamorig:LeftHandRing2
									{
										OFFSET 3.149994 0.000000 0.000000
										CHANNELS 3 Xrotation Yrotation Zrotation
										JOINT mixamorig:LeftHandRing3
										{
											OFFSET 2.950005 0.000000 0.000000
											CHANNELS 3 Xrotation Yrotation Zrotation
											JOINT mixamorig:LeftHandRing4
											{
												OFFSET 2.644302 0.000000 0.000000
												CHANNELS 3 Xrotation Yrotation Zrotation
												End Site
												{
													OFFSET 2.644302 0.000000 0.000083
												}
											}
										}
									}
								}
								JOINT mixamorig:LeftHandPinky1
								{
									OFFSET 8.077805 -0.486893 -3.806302
									CHANNELS 6 Xposition Yposition Zposition Xrotation Yrotation Zrotation
									JOINT mixamorig:LeftHandPinky2
									{
										OFFSET 3.600006 0.000000 0.000000
										CHANNELS 3 Xrotation Yrotation Zrotation
										JOINT mixamorig:LeftHandPinky3
										{
											OFFSET 2.099998 0.000000 0.000000
											CHANNELS 3 Xrotation Yrotation Zrotation
											JOINT mixamorig:LeftHandPinky4
											{
												OFFSET 2.125496 0.000000 0.000000
												CHANNELS 3 Xrotation Yrotation Zrotation
												End Site
												{
													OFFSET 2.125504 0.000000 -0.001254
												}
											}
										}
									}
								}
							}
						}
					}
				}
			}
		}
	}
	JOINT mixamorig:RightUpLeg
	{
		OFFSET -8.207800 -6.751701 -1.599544
		CHANNELS 6 Xposition Yposition Zposition Xrotation Yrotation Zrotation
		JOINT mixamorig:RightLeg
		{
			OFFSET 0.000004 -44.370152 0.345934
			CHANNELS 3 Xrotation Yrotation Zrotation
			JOINT mixamorig:RightFoot
			{
				OFFSET 0.000004 -44.423664 -3.043535
				CHANNELS 3 Xrotation Yrotation Zrotation
				JOINT mixamorig:RightToeBase
				{
					OFFSET 0.000001 -8.728691 10.710592
					CHANNELS 3 Xrotation Yrotation Zrotation
					JOINT mixamorig:RightToe_End
					{
						OFFSET 0.000000 -0.000665 9.278101
						CHANNELS 3 Xrotation Yrotation Zrotation
						End Site
						{
							OFFSET 0.000000 -0.000665 9.278103
						}
					}
				}
			}
		}
	}
	JOINT mixamorig:LeftUpLeg
	{
		OFFSET 8.207800 -6.751701 -1.599544
		CHANNELS 6 Xposition Yposition Zposition Xrotation Yrotation Zrotation
		JOINT mixamorig:LeftLeg
		{
			OFFSET 0.000004 -44.370037 0.346940
			CHANNELS 3 Xrotation Yrotation Zrotation
			JOINT mixamorig:LeftFoot
			{
				OFFSET 0.000004 -44.423611 -3.044388
				CHANNELS 3 Xrotation Yrotation Zrotation
				JOINT mixamorig:LeftToeBase
				{
					OFFSET 0.000001 -8.728690 10.710592
					CHANNELS 3 Xrotation Yrotation Zrotation
					JOINT mixamorig:LeftToe_End
					{
						OFFSET 0.000000 -0.000680 9.278101
						CHANNELS 3 Xrotation Yrotation Zrotation
						End Site
						{
							OFFSET 0.000000 -0.000680 9.278101
						}
					}
				}
			}
		}
	}
}
MOTION
Frames: 4
Frame Time: 0.033333
0.144201 103.379486 1.422840 -3.753051 -5.218522 -3.761018 -0.000000 10.181548 0.131524 3.293731 1.538088 2.729296 1.146033 0.329155 1.552971 1.123714 0.356192 1.550933 0.000001 16.740362 -2.049020 5.622647 -0.077170 0.463897 0.000000 9.617875 1.684979 -7.551132 1.374726 -0.084352 0.000001 22.037369 7.501073 0.000000 0.000000 -0.000000 -4.570004 11.014853 -2.160839 1.189538 15.344128 14.707062 13.162675 27.550885 58.781004 -0.000004 6.689787 0.000017 -20.174687 -0.523622 6.792842 -2.464800 -1.573993 2.681911 -1.664545 -0.169101 -4.216937 12.708061 -29.838221 -16.127617 -2.646268 -1.527818 1.527818 -15.551977 -3.555864 -12.703311 -1.994571 -1.151579 1.151573 -0.000001 -0.000002 -0.000002 -9.108304 -0.517869 2.259803 0.037631 1.264469 6.828349 0.213859 -1.396481 17.412925 0.046100 -0.654331 8.059114 0.000003 0.000001 0.000005 -9.532511 0.000015 -0.000000 -0.135883 -2.206386 14.998769 0.214468 -1.398407 17.437700 0.239795 -1.476587 18.447077 0.000001 -0.000000 0.000005 -9.103596 -0.043113 -1.865102 0.031292 -3.078196 20.463785 0.308453 -1.668285 20.948518 0.225815 -1.434038 17.897099 0.000001 -0.000002 0.000002 -8.076701 -0.486716 -3.806299 0.748322 -4.885955 26.472218 0.214426 -1.398279 17.436011 0.192922 -1.327906 16.532294 0.000001 -0.000000 0.000001 4.570405 11.014663 -2.160814 1.046099 -17.446011 -12.316931 3.916122 -19.989285 -69.767514 -0.000009 -1.453882 0.000010 -33.228379 -1.359456 -6.190958 2.466100 -1.576200 2.681701 -0.666027 2.158648 4.837367 11.859640 25.414902 17.056656 2.647880 -1.528756 1.528754 -13.811962 3.541922 9.030670 1.998921 -1.154085 1.154086 0.000001 0.000001 -0.000002 9.109289 -0.518015 2.259901 0.020426 -0.966546 -7.590930 0.267860 1.753008 -17.376520 0.057689 0.821049 -8.038806 0.000000 -0.000000 -0.000002 9.533398 0.000001 0.000000 -0.077481 2.661843 -15.698701 0.268747 1.755806 -17.405233 0.300492 1.853985 -18.413061 -0.000001 -0.000000 0.000005 9.104492 -0.043015 -1.865101 0.137944 3.644612 -21.134830 0.386529 2.094683 -20.910441 0.283102 1.800923 -17.867572 0.000000 0.000000 0.000003 8.077811 -0.486891 -3.806302 0.923007 5.558256 -27.126868 0.268775 1.755865 -17.405875 0.241879 1.667694 -16.505528 0.000000 0.000000 0.000001 -8.207799 -6.751696 -1.599545 0.604044 -10.384679 3.498387 7.413312 -9.751012 -3.277154 -3.692615 -1.648783 3.209363 -7.273475 -0.000007 -0.000000 -0.000000 0.000001 -0.000000 8.207802 -6.751702 -1.599547 -10.790455 14.736224 10.341507 12.170355 2.032101 4.165245 1.271349 0.516040 -7.110098 -4.933146 0.000011 0.000000 -0.000000 -0.000000 0.000000 
0.225492 103.368401 1.403270 -3.664725 -5.144956 -3.662318 0.000002 10.181550 0.131523 3.116382 1.515371 2.515301 1.083446 0.326847 1.537917 1.061878 0.352693 1.535954 -0.000001 16.740347 -2.049018 5.634474 -0.069734 0.459389 -0.000000 9.617848 1.684979 -7.496362 1.413767 -0.087205 -0.000001 22.037369 7.501076 0.000000 0.000000 0.000000 -4.570002 11.014860 -2.160840 1.189601 15.346214 14.706557 13.147789 27.554163 58.797233 -0.000010 6.688593 0.000012 -20.190592 -0.500957 6.800327 -2.464801 -1.573989 2.681910 -1.580067 -0.233023 -4.142092 12.715631 -29.786574 -16.117827 -2.646269 -1.527822 1.527813 -15.567128 -3.468613 -12.684064 -1.994580 -1.151585 1.151570 -0.000000 -0.000000 0.000002 -9.108306 -0.517885 2.259804 0.038490 1.257207 6.918229 0.229469 -1.445239 18.041641 0.049231 -0.676184 8.330307 0.000001 0.000001 0.000005 -9.532503 -0.000004 0.000000 -0.136004 -2.213995 15.088622 0.230083 -1.447161 18.066450 0.246824 -1.497522 18.718420 -0.000001 -0.000001 0.000000 -9.103601 -0.043093 -1.865100 0.033901 -3.093634 20.655115 0.327018 -1.715978 21.577461 0.232662 -1.455058 18.168412 0.000001 -0.000001 0.000004 -8.076713 -0.486723 -3.806298 0.754508 -4.898299 26.642072 0.230023 -1.447024 18.064734 0.199267 -1.349073 16.803597 -0.000001 0.000000 -0.000000 4.570402 11.014664 -2.160813 0.995874 -16.146598 -12.426276 3.577178 -18.396662 -69.909841 -0.000008 -2.273477 -0.000002 -26.385214 -2.553852 -6.040824 2.466086 -1.576194 2.681698 -4.755523 -1.176504 8.856126 13.130749 23.296435 12.648052 2.647895 -1.528750 1.528757 -12.406114 0.442748 8.161074 1.998921 -1.154082 1.154082 0.000001 0.000001 -0.000002 9.109305 -0.518011 2.259899 0.147458 -1.191761 -4.043750 0.267462 1.751711 -17.363341 0.057683 0.821066 -8.038954 -0.000001 0.000000 0.000001 9.533394 0.000006 0.000000 -0.084314 2.433139 -13.510100 0.366820 2.042321 -20.363687 0.300502 1.853988 -18.413099 -0.000001 0.000001 0.000002 9.104497 -0.042998 -1.865101 0.175179 3.795619 -22.535248 0.430994 2.207445 -22.094738 0.283100 1.800920 -17.867589 0.000001 0.000000 0.000001 8.077794 -0.486893 -3.806300 1.153954 6.006857 -27.098518 0.352285 2.002803 -19.952364 0.241881 1.667691 -16.505529 -0.000000 -0.000001 -0.000001 -8.207798 -6.751696 -1.599545 0.336672 -10.370560 3.331480 7.679100 -9.864811 -3.280664 -3.786295 -1.640968 3.289107 -7.273983 0.000001 0.000003 -0.000000 -0.000000 -0.000000 8.207801 -6.751709 -1.599546 -10.887868 14.740506 10.186498 12.197556 1.975541 4.167051 1.269228 0.517719 -7.040036 -4.933033 0.000002 0.000000 -0.000000 0.000000 0.000000 
0.310160 103.357613 1.388193 -3.576612 -5.070461 -3.559418 0.000001 10.181537 0.131524 2.908921 1.477801 2.301758 1.016835 0.323156 1.523138 0.996089 0.347719 1.521271 -0.000000 16.740343 -2.049020 5.663945 -0.049222 0.449989 -0.000000 9.617834 1.684982 -7.316663 1.556995 -0.168195 0.000000 22.037369 7.501073 -0.000001 0.000000 -0.000000 -4.570001 11.014855 -2.160839 1.189775 15.351127 14.705244 13.123405 27.544485 58.804240 -0.000000 6.663471 -0.000002 -20.145657 -0.515483 6.796617 -2.464798 -1.574006 2.681907 -1.376779 -0.386584 -3.961192 12.733834 -29.662173 -16.094304 -2.646262 -1.527795 1.527818 -15.603687 -3.258568 -12.637653 -1.994586 -1.151581 1.151570 0.000005 0.000000 -0.000002 -9.108308 -0.517881 2.259802 0.040656 1.239714 7.134597 0.269166 -1.561893 19.555383 0.057253 -0.728760 8.983247 0.000001 -0.000000 0.000002 -9.532490 -0.000006 -0.000001 -0.136224 -2.232329 15.304915 0.269849 -1.563799 19.580318 0.264203 -1.547804 19.371735 -0.000001 0.000003 0.000005 -9.103590 -0.043112 -1.865101 0.040434 -3.130806 21.115733 0.373855 -1.829970 23.091724 0.249545 -1.505486 18.821694 0.000000 0.000002 0.000002 -8.076700 -0.486713 -3.806298 0.769558 -4.927927 27.051109 0.269789 -1.563661 19.578462 0.214934 -1.399902 17.456801 0.000001 0.000001 0.000001 4.570398 11.014689 -2.160815 0.948241 -14.781667 -12.527256 2.996078 -16.714429 -70.039581 0.000013 -3.154302 0.000000 -19.162039 -4.071053 -5.957174 2.466088 -1.576202 2.681699 -10.862846 -6.439904 14.103191 14.991321 19.937529 6.269867 2.647882 -1.528748 1.528747 -10.185584 -4.759799 7.107328 1.998929 -1.154083 1.154081 -0.000000 0.000003 -0.000002 9.109292 -0.518014 2.259901 0.379173 -1.633986 1.755509 0.266876 1.749793 -17.343732 0.057677 0.821088 -8.039174 -0.000000 -0.000001 -0.000000 9.533396 -0.000002 0.000001 -0.075563 2.057371 -9.869190 0.559284 2.500053 -25.217656 0.300493 1.853988 -18.413142 -0.000001 -0.000001 0.000002 9.104482 -0.043015 -1.865101 0.227066 3.999692 -24.754243 0.508840 2.390122 -24.035371 0.283101 1.800917 -17.867587 0.000001 0.000001 -0.000001 8.077799 -0.486898 -3.806301 1.630565 6.933809 -27.045481 0.512058 2.397335 -24.112694 0.241874 1.667694 -16.505526 -0.000000 0.000002 -0.000001 -8.207800 -6.751715 -1.599544 0.074225 -10.359237 3.158487 7.940806 -9.945398 -3.283245 -3.878639 -1.664635 3.368618 -7.273773 -0.000000 0.000000 -0.000001 -0.000000 0.000000 8.207801 -6.751719 -1.599544 -10.979205 14.746938 10.023928 12.222403 1.918597 4.168613 1.264240 0.519483 -6.968286 -4.932979 -0.000001 -0.000001 0.000000 -0.000001 0.000000 
0.398955 103.345924 1.380401 -3.494704 -5.000250 -3.451251 -0.000000 10.181543 0.131524 2.672932 1.406789 2.087188 0.941428 0.316825 1.512026 0.921614 0.339986 1.510287 -0.000000 16.740379 -2.049021 5.711661 0.008425 0.448587 0.000000 9.617856 1.684977 -6.900541 1.959221 -0.339313 -0.000000 22.037369 7.501072 -0.000000 0.000000 0.000000 -4.570004 11.014892 -2.160840 1.189929 15.356161 14.703968 13.091628 27.532370 58.791058 -0.000011 6.614477 0.000005 -20.065390 -0.561593 6.787739 -2.464790 -1.573983 2.681910 -1.051300 -0.631516 -3.669579 12.762828 -29.462940 -16.056778 -2.646268 -1.527806 1.527811 -15.662585 -2.922292 -12.563010 -1.994586 -1.151590 1.151574 0.000003 -0.000004 -0.000002 -9.108297 -0.517873 2.259803 0.044248 1.211710 7.481060 0.339167 -1.746392 21.979827 0.071327 -0.812756 10.028877 0.000001 -0.000001 0.000003 -9.532495 -0.000007 -0.000000 -0.136417 -2.261735 15.651259 0.339935 -1.748287 22.004945 0.293176 -1.627873 20.417952 -0.000001 0.000002 0.000001 -9.103621 -0.043115 -1.865103 0.051523 -3.190337 21.853429 0.455147 -2.009816 25.517054 0.277756 -1.585842 19.867888 -0.000000 0.000002 0.000002 -8.076696 -0.486722 -3.806301 0.794105 -4.975164 27.706177 0.339881 -1.748144 22.002952 0.241231 -1.480911 18.502892 0.000001 -0.000000 0.000003 4.570404 11.014690 -2.160815 0.903608 -13.333929 -12.618814 2.127412 -14.983384 -70.127075 -0.000006 -4.167062 0.000002 -14.132269 -5.377710 -5.341790 2.466099 -1.576200 2.681696 -16.001494 -11.007533 17.769089 16.465131 16.920662 1.182394 2.647890 -1.528759 1.528757 -8.075770 -9.997379 6.506218 1.998921 -1.154068 1.154081 0.000000 -0.000000 -0.000002 9.109290 -0.518021 2.259897 0.679021 -2.247155 7.429142 0.266373 1.748201 -17.327382 0.057672 0.821096 -8.039342 -0.000001 -0.000000 -0.000000 9.533399 0.000006 -0.000003 -0.042504 1.682529 -6.188227 0.785920 2.932971 -29.997019 0.300503 1.853996 -18.413160 0.000001 -0.000002 0.000003 9.104518 -0.043011 -1.865104 0.281861 4.186751 -26.784951 0.591293 2.566867 -25.941958 0.283097 1.800920 -17.867592 -0.000001 -0.000003 -0.000002 8.077811 -0.486891 -3.806303 2.285074 8.206763 -26.985258 0.695287 2.770251 -28.175476 0.241880 1.667690 -16.505538 -0.000000 -0.000004 -0.000001 -8.207800 -6.751711 -1.599545 -0.185744 -10.346949 2.974919 8.217173 -9.987921 -3.284149 -3.979954 -1.724343 3.449843 -7.273520 0.000003 0.000001 -0.000000 0.000001 0.000000 8.207799 -6.751713 -1.599546 -11.061954 14.757460 9.853934 12.257944 1.861254 4.169900 1.248601 0.521741 -6.894652 -4.933365 0.000001 -0.000002 -0.000000 -0.000000 0.000000 
